# xmcd
#
# Track frame offsets:
#	150
#	13494
#	23654
#	39227
#	56201
#	72698
#	93038
#	110149
#	136214
#	157003
#	173034
#	195187
#	210998
#	226866
#	248635
#	265673
#	282448
#	303525
#	320275
#	339352
#
# Disc length: 4796 seconds
#
# Revision: 0
# Processed by: cddbd v1.5.2PL0 Copyright (c) Steve Scherf et al.
# Submitted via: audiograbber 1.83.01
#
DISCID=1212ba14
DTITLE=Various Artist - Radioactive Urban Radio - Oct 2012
DYEAR=2012
DGENRE=Hip-Hop
TTITLE0=Young Ant Feat. Zig Zag - She's A Badd Girl
TTITLE1=E-40 Feat. Big Sean - In This Thang Breh (Remix)
TTITLE2=2 Chainz - I'm Different
TTITLE3=Lil Chuckee - Da Wop
TTITLE4=LoveRance Feat. Tyga and Problem - Akup
TTITLE5=Alicia Keys Feat. Nicki Minaj - Girl On Fire
TTITLE6=Miguel Feat. Nicki Minaj - Adorn (Remix)
TTITLE7=Slaughterhouse Feat. Fat Joe - Goodbye (Remix)
TTITLE8=Rick Ross Feat. Wale and Drake - Diced Pineapples
TTITLE9=Nicki Minaj Feat. Cam'Ron and Rick Ross - I Am Your Leader
TTITLE10=Kanye West Feat. Big Sean and Jay-Z - Clique
TTITLE11=Tyga Feat. 2 Chainz - Do My Dance
TTITLE12=MGK Feat. Young Jeezy - Hold On (Shut Up)
TTITLE13=Game Feat. Chris Brown, Tyga, Wiz Khalifa and Lil Wayne - Celebration
TTITLE14=Usher - Dive
TTITLE15=B.o.B Feat. Nicki Minaj - Out Of My Mind
TTITLE16=Juicy J Feat. Lil Wayne and 2 Chainz - Bands A Make Her Dance (Remix)
TTITLE17=Lil Wayne and 2 Chainz - No Worries
TTITLE18=Trey Songz - Dive In
TTITLE19=Beyonce - Dance For You
EXTD=
EXTT0=
EXTT1=
EXTT2=
EXTT3=
EXTT4=
EXTT5=
EXTT6=
EXTT7=
EXTT8=
EXTT9=
EXTT10=
EXTT11=
EXTT12=
EXTT13=
EXTT14=
EXTT15=
EXTT16=
EXTT17=
EXTT18=
EXTT19=
PLAYORDER=
